<?xml version="1.0" encoding="iso-8859-1"?>
<!-- Uploaded to: SVG Repo, www.svgrepo.com, Generator: SVG Repo Mixer Tools -->
<!DOCTYPE svg PUBLIC "-//W3C//DTD SVG 1.1//EN" "http://www.w3.org/Graphics/SVG/1.1/DTD/svg11.dtd">
<svg fill="#40BFFF" height="800px" width="800px" version="1.1" id="Capa_1"
	xmlns="http://www.w3.org/2000/svg" xmlns:xlink="http://www.w3.org/1999/xlink"
	viewBox="0 0 299.293 299.293" xml:space="preserve">
<path d="M214.856,209.773c-15.857,0-26.594-1.634-31.91-4.856c-3.001-1.818-10.939-6.628-33.3-54.07
	c-22.36,47.438-30.301,52.251-33.3,54.07c-5.317,3.222-16.054,4.856-31.911,4.856c-16.099,0-49.495-2.276-60.664-10.892
	c-11.588-8.939-13.86-26.102-15.864-41.244c-0.574-4.341-1.117-8.442-1.833-11.779c-1.365-6.375-2.522-9.132-3.034-10.138
	c-1.845-1.366-3.04-3.559-3.04-6.03v-28.846c0-3.932,3.037-7.197,6.959-7.48c2.168-0.157,53.428-3.843,82.214-3.843
	c27.673,0,58.274,0.485,60.474,0.521c2.198-0.036,32.8-0.521,60.473-0.521c28.787,0,80.047,3.686,82.215,3.843
	c3.922,0.284,6.959,3.548,6.959,7.48v28.846c0,2.472-1.196,4.665-3.041,6.031c-0.512,1.007-1.669,3.764-3.034,10.138
	c-0.716,3.338-1.259,7.438-1.833,11.779c-2.004,15.142-4.276,32.305-15.864,41.244C264.353,207.497,230.955,209.773,214.856,209.773
	z M149.646,135.268c5.706,0,10.759,3.208,13.186,8.371c16.327,34.743,25.213,46.802,27.889,48.451
	c1.231,0.746,7.969,2.684,24.136,2.684c24.416,0,46.738-4.094,51.502-7.769c6.691-5.162,8.612-19.674,10.156-31.335
	c0.614-4.646,1.195-9.033,2.035-12.954c1.349-6.291,3.01-12.305,5.743-16.178v-18.693c-15.27-1.022-52.094-3.324-74.174-3.324
	c-28.456,0-60.033,0.515-60.349,0.521c-0.084,0.001-0.164,0.001-0.248,0c-0.315-0.005-31.898-0.521-60.35-0.521
	c-22.079,0-58.903,2.302-74.173,3.324v18.694c2.732,3.873,4.394,9.887,5.742,16.177c0.84,3.92,1.421,8.308,2.035,12.953
	c1.544,11.661,3.465,26.174,10.156,31.336c4.764,3.675,27.086,7.769,51.502,7.769c16.167,0,22.904-1.938,24.137-2.684
	c2.675-1.648,11.561-13.708,27.888-48.45C138.887,138.475,143.939,135.268,149.646,135.268z"/>
</svg>